<?xml version="1.0" encoding="utf-8"?>
<!-- Generator: Adobe Illustrator 27.0.0, SVG Export Plug-In . SVG Version: 6.00 Build 0)  -->
<svg version="1.1" id="Layer_1" xmlns="http://www.w3.org/2000/svg" xmlns:xlink="http://www.w3.org/1999/xlink" x="0px" y="0px"
	 viewBox="0 0 302.3 298.2" style="enable-background:new 0 0 302.3 298.2;" xml:space="preserve">
<path d="M-1476.4-644.2c-11.6-0.1-23.2,0-34.9,0c-2.4,0-4.3,1.9-4.6,4.3c-0.3,2.1,1.2,4.5,3.3,5.1c1,0.3,2,0.4,3,0.4
	c8.2,0,16.4,0,24.6,0c0.7,0,1.3,0,2.2,0c-0.1,0.8-0.2,1.4-0.3,1.9c-0.7,3.7-1.5,7.4-2.2,11.1c-2.7,13.6-5.4,27.2-8.2,40.8
	c-1.2,5.8-5.9,9.5-11.8,9.5c-18.3,0-36.6,0-55,0c-6.1,0-10.9-4.1-12-10.1c-2.7-14.2-5.4-28.4-8.1-42.6c-0.7-3.5-1.3-6.9-2-10.7
	c0.8,0,1.4,0,2.1,0c8.1,0,16.1,0,24.2,0c1.2,0,2.5-0.2,3.6-0.7c1.9-0.9,2.9-3.3,2.4-5.2c-0.6-2.3-2.4-3.9-4.8-3.9
	c-9.2,0-18.3,0-27.5,0c-0.6,0-1.2,0-1.9,0c-0.2-0.7-0.3-1.3-0.4-1.8c-1.5-7.6-2.9-15.1-4.4-22.7c-0.7-3.6-2.2-4.8-5.9-4.8
	c-5.8,0-11.7,0-17.5,0c-0.5,0-1,0-1.5,0.1c-2.8,0.3-4.6,2.5-4.4,5.3c0.2,2.5,2.2,4.3,4.9,4.3c5.1,0.1,10.2,0,15.3,0
	c0.2,0.8,0.3,1.4,0.5,2.1c1,5.1,1.9,10.2,2.9,15.3c4.2,21.9,8.4,43.8,12.5,65.8c2.3,12.2,10.8,19.5,23.2,19.5c17.7,0,35.5,0,53.2,0
	c11.3,0,20.1-7.4,22.2-18.6c2.9-15.1,6-30.2,9-45.3c0.9-4.5,1.9-8.9,2.6-13.4C-1471.4-641.6-1473.4-644.2-1476.4-644.2z
	 M-1501.4-556.3c-7.9,0-14.5,6.7-14.4,14.7c0,8.1,6.7,14.7,14.8,14.7c8,0,14.7-6.7,14.6-14.7
	C-1486.4-549.9-1493.1-556.3-1501.4-556.3z M-1501.2-536.8c-2.6-0.1-4.7-2.3-4.7-4.9c0-2.7,2.2-4.8,4.9-4.8c2.7,0,4.7,2.2,4.7,4.8
	C-1496.3-538.9-1498.6-536.7-1501.2-536.8z M-1564-556.3c-8.5-0.2-15.2,6.2-15.4,14.4c-0.2,8,6.4,14.7,14.6,14.9
	c7.9,0.1,14.7-6.4,14.8-14.3C-1549.8-549.3-1556.2-556.1-1564-556.3z M-1564.7-536.8c-2.6,0-4.8-2.2-4.8-4.8c0-2.7,2.1-4.9,4.9-4.9
	c2.7,0,4.8,2.1,4.8,4.7C-1559.8-539-1562-536.8-1564.7-536.8z"/>
<path d="M-1576-444.7c2.1,13.8,4.2,27.4,6.4,41c0.3,1.6,0.4,3.3,0.9,4.9c1.8,6.3,7.6,10.9,14.3,10.9c16.1,0.1,32.2,0.1,48.4,0
	c7.8-0.1,13.8-5.9,14.9-13.8c0.4-2.6,0.7-5.2,1.3-7.8c0.6-3,3.3-4.7,6.1-4.2c2.7,0.5,4.5,3.2,4,6.1c-0.5,3.5-1,6.9-1.7,10.3
	c-1.4,6.3-4.9,11.2-10,15c-0.4,0.3-0.9,0.6-1.5,1c3.5,4.4,4.9,9.4,3.9,15c-0.7,3.9-2.6,7.3-5.5,10c-5.9,5.4-14.5,6.4-21.4,2.4
	c-4.1-2.4-6.8-5.9-8.2-10.4c-1.4-4.5-1-8.8,0.9-13.1c-4.7,0-9.1,0-13.7,0c2.2,5.3,2.3,10.5-0.1,15.6c-1.7,3.6-4.4,6.3-8,8.2
	c-7.3,3.8-16,2.2-21.6-3.8c-6.1-6.6-6.3-14.6-0.9-23.5c-2.4-2.4-4.8-4.5-6.9-7c-3.6-4.3-4.6-9.6-5.5-15c-2.3-13.5-4.6-26.9-7-40.4
	c-1-5.8-2-11.5-3-17.3c-0.5-3.2-2.4-4.8-5.7-4.8c-5.6,0-11.2,0-16.8,0c-3.3,0-5.6-2.1-5.7-5.1c0-3,2.3-5.2,5.7-5.2
	c5.7,0,11.4,0,17.1,0c7.4,0,13.3,4.6,15.2,11.8c0.7,2.5,1.3,5,1.9,7.5c0.2,1.2,0.7,1.4,1.8,1.4c13.1,0,26.2,0,39.3,0
	c2.6,0,4.9,1.9,5.2,4.4c0.3,2.6-1.2,5-3.7,5.7c-0.7,0.2-1.4,0.2-2.1,0.2c-12.1,0-24.2,0-36.2,0
	C-1574.7-444.7-1575.3-444.7-1576-444.7z M-1545.9-369.7c0-4.2-3.5-7.7-7.7-7.7c-4.2,0-7.7,3.5-7.7,7.7c0,4.3,3.5,7.8,7.8,7.8
	C-1549.4-361.9-1545.9-365.4-1545.9-369.7z M-1499.3-369.6c0-4.3-3.4-7.7-7.6-7.8c-4.2,0-7.7,3.4-7.8,7.7c-0.1,4.3,3.5,7.8,7.7,7.9
	C-1502.8-361.8-1499.3-365.4-1499.3-369.6z"/>
<image style="overflow:visible;" width="876" height="739" xlink:href="Screenshot 2022-10-24 102154.png"  transform="matrix(0.75 0 0 0.75 -2363.9197 -693.8063)">
</image>
<image style="overflow:visible;" width="436" height="313" xlink:href="Screenshot 2022-10-24 102236.png"  transform="matrix(0.387 0 0 0.387 -800.2415 -157.218)">
</image>
<image style="overflow:visible;" width="304" height="174" xlink:href="Screenshot 2022-10-24 102304.png"  transform="matrix(0.75 0 0 0.75 -801.3665 -714.3192)">
</image>
<image style="overflow:visible;" width="224" height="176" xlink:href="Screenshot 2022-10-24 102411.png"  transform="matrix(0.75 0 0 0.75 -799.8665 -289.218)">
</image>
<image style="overflow:visible;" width="228" height="201" xlink:href="Screenshot 2022-10-24 102513.png"  transform="matrix(0.75 0 0 0.75 -565.4516 -437.231)">
</image>
<image style="overflow:visible;" width="616" height="451" xlink:href="Screenshot 2022-10-24 102603.png"  transform="matrix(0.75 0 0 0.75 -609.3665 -1390.4972)">
</image>
<image style="overflow:visible;" width="221" height="197" xlink:href="Screenshot 2022-10-24 102634.png"  transform="matrix(0.75 0 0 0.75 -801.3665 -587.718)">
</image>
<path d="M-1564.1-208c0-1.3-0.1-2.3,0-3.3c0.8-11.1,1.6-22.2,2.2-33.3c0.1-2.6,1.1-3.8,3.3-4.8c12.3-5.9,25.1-10.7,38.5-13.2
	c14.2-2.7,28.7-4.5,40.8-6.3c-26.2-3.1-54.3-2.9-81.7,9.1c0.5-8.3,0.9-16.1,1.4-24.2c-15.5,2.5-30.4,4.8-45.2,7.2c0,0.2,0,0.5,0,0.7
	c10,0,20,0,30.5,0c-5.3,31.8-10.6,63.1-15.9,94.7c61.3-24,123.8-38.7,189.8-31.5C-1455.2-228.9-1509.7-224.8-1564.1-208z
	 M-1539.4-190.3c-6.3,0.7-11.1,2.5-14.6,6.6c-1.1,1.2-2,3.6-1.5,4.8c0.5,1.2,2.9,2.2,4.5,2.2c5.5,0,10.3-2.1,13.9-6.2
	c1.1-1.2,2-3.6,1.5-4.8C-1536.2-189.1-1538.5-189.8-1539.4-190.3z M-1456.3-206.3c-5.8-0.3-10.8,1.9-14.6,6.1
	c-1.1,1.2-1.9,3.6-1.4,5.1c0.4,1.2,2.8,1.7,3.7,2.2c6.5-0.7,11.6-2.6,15.1-7.2c0.8-1.1,1.3-3.1,0.8-4.3
	C-1453-205.4-1455-206.2-1456.3-206.3z"/>
<path d="M-1384-548.9c-6.2,0.4-11.4-1.1-15.8-5.3c-2.9-2.8-4.7-6.3-5.4-10.3c-1.1-6.6,1.3-16.2,12.5-20.7c-4-26-8-52-12-78.2
	c-0.6,0-1.1,0-1.7,0c-4.7,0-9.4,0-14.1,0c-2.6,0-4.7-1.8-5.1-4.1c-0.4-2.5,0.7-4.7,3-5.6c0.8-0.3,1.6-0.4,2.5-0.4
	c6.4,0,12.7,0,19.1,0c3.5,0,5.2,1.7,5.8,5.2c1.4,9.2,3,18.5,4.4,27.7c1.4,9.3,2.8,18.6,4.2,27.8c1.4,8.9,2.8,17.7,4.2,26.8
	c0.5,0,1.1,0,1.7,0c21.3,0,42.5,0,63.8,0c4.8,0,7.7-2.1,9.1-6.7c4.8-15.8,9.5-31.6,14.3-47.5c0.7-2.2,0.1-2.8-2.2-2.8
	c-27.7,0-55.5,0-83.2,0c-0.9,0-1.9-0.1-2.8-0.3c-2.4-0.8-3.6-2.8-3.3-5.4c0.2-2.4,2-4.2,4.4-4.5c0.6-0.1,1.2-0.1,1.7-0.1
	c27.7,0,55.4,0,83.1,0c6.2,0,10.6,2.9,12.3,8.1c0.8,2.4,0.8,4.8,0.1,7.1c-4.9,16.4-9.8,32.8-14.8,49.2c-2.5,8.1-9.5,13.1-17.9,13.1
	c-23.3,0-46.6,0-70,0c-4.5,0-7.7,2.4-8.8,6.4c-1.3,5.1,2.5,10.2,7.7,10.4c2.4,0.1,4.8,0,7.3,0c26.6,0,53.3,0,79.9,0
	c2.9,0,4.8,1.2,5.6,3.5c1.1,3-0.9,6.4-4.2,6.6c-2.8,0.2-5.7,0.1-8.5,0.1c-0.5,0-0.9,0-1.6,0.1c2.6,3.8,3.4,7.7,2.3,11.9
	c-0.8,2.9-2.5,5.3-4.9,7.2c-4.8,3.6-11.5,3.6-16.3-0.1c-2.9-2.3-4.7-5.3-5.2-8.9c-0.5-3.6,0.5-6.9,2.7-10.1c-10.9,0-21.6,0-32.5,0
	c2.6,3.9,3.5,8,2.1,12.3c-0.9,3-2.7,5.3-5.3,7.1c-5.2,3.6-12.1,3-16.7-1.2C-1386.3-534.1-1389.1-541.2-1384-548.9z"/>
<path d="M25.6,14.8c20.8,2.1,43.4,4.4,66,6.6c8.4,0.8,16.8,1.8,25.3,2.3c5.5,0.3,9.9,2,14,6.1c50,50.3,100.2,100.4,150.4,150.5
	c5.8,5.8,5.7,6.2,0,11.9c-29.1,29.1-58.3,58.2-87.4,87.4c-5.1,5.1-6.1,5.2-11.3,0.1c-38.5-38.5-77-77-115.6-115.6
	c-10.7-10.7-21-21.8-32.2-31.9c-6.6-5.9-9.1-12.6-9.8-21.1c-2.4-29.8-5.4-59.5-8.2-89.2C16.3,15.2,16.9,14.5,25.6,14.8z M57,69.6
	c0,8.2,6.7,14.9,14.9,14.8c8-0.1,14.4-6.7,14.4-14.9c0-8.1-6.4-14.7-14.4-14.8C63.8,54.5,57,61.4,57,69.6z"/>
</svg>
